{
    "asset" : {
        "generator" : "Khronos glTF Blender I/O v1.6.16",
        "version" : "2.0"
    },
    "scene" : 0,
    "scenes" : [
        {
            "name" : "Scene",
            "nodes" : [
                0,
                1,
                2,
                3,
                4,
                5,
                6,
                7,
                8
            ]
        }
    ],
    "nodes" : [
        {
            "name" : "Light",
            "rotation" : [
                0.16907575726509094,
                0.7558803558349609,
                -0.27217137813568115,
                0.570947527885437
            ],
            "translation" : [
                4.076245307922363,
                5.903861999511719,
                -1.0054539442062378
            ]
        },
        {
            "name" : "Camera",
            "rotation" : [
                0.483536034822464,
                0.33687159419059753,
                -0.20870360732078552,
                0.7804827094078064
            ],
            "translation" : [
                7.358891487121582,
                4.958309173583984,
                6.925790786743164
            ]
        },
        {
            "mesh" : 0,
            "name" : "Tongue.001_CubeOpenMesh1.003",
            "rotation" : [
                0.7071068286895752,
                0,
                0,
                0.7071067094802856
            ]
        },
        {
            "mesh" : 1,
            "name" : "MushroomEyeRight.001_Sphere.005",
            "rotation" : [
                0.7071068286895752,
                0,
                0,
                0.7071067094802856
            ]
        },
        {
            "mesh" : 2,
            "name" : "MushroomEyeLeft.001_Sphere.004",
            "rotation" : [
                0.7071068286895752,
                0,
                0,
                0.7071067094802856
            ]
        },
        {
            "mesh" : 3,
            "name" : "MushroomCap.001_Sphere.003",
            "rotation" : [
                0.7071068286895752,
                0,
                0,
                0.7071067094802856
            ],
            "scale" : [
                0.6353979706764221,
                0.6353979706764221,
                0.6353979706764221
            ]
        },
        {
            "mesh" : 4,
            "name" : "Teeth.001_Plane.001",
            "rotation" : [
                0.7071068286895752,
                0,
                0,
                0.7071067094802856
            ]
        },
        {
            "mesh" : 5,
            "name" : "MushroomBase.001_CubeOpenMesh.002",
            "rotation" : [
                0.7071068286895752,
                0,
                0,
                0.7071067094802856
            ]
        },
        {
            "mesh" : 6,
            "name" : "TongueSpit.001_CubeOpenMesh1.002",
            "rotation" : [
                0.7071068286895752,
                0,
                0,
                0.7071067094802856
            ]
        }
    ],
    "materials" : [
        {
            "doubleSided" : true,
            "name" : "Tongue",
            "pbrMetallicRoughness" : {
                "baseColorFactor" : [
                    0.8962690234184265,
                    0.09758699685335159,
                    0.0930590033531189,
                    1
                ],
                "metallicFactor" : 0,
                "roughnessFactor" : 0
            }
        },
        {
            "doubleSided" : true,
            "name" : "Eye",
            "pbrMetallicRoughness" : {
                "metallicFactor" : 0,
                "roughnessFactor" : 0
            }
        },
        {
            "doubleSided" : true,
            "name" : "Pupil",
            "pbrMetallicRoughness" : {
                "baseColorFactor" : [
                    1,
                    0.078186996281147,
                    0.8680779933929443,
                    1
                ],
                "metallicFactor" : 0,
                "roughnessFactor" : 0.5
            }
        },
        {
            "doubleSided" : true,
            "name" : "MushroomBlue",
            "pbrMetallicRoughness" : {
                "baseColorFactor" : [
                    0.0886560007929802,
                    0.9734460115432739,
                    0.9734460115432739,
                    1
                ],
                "metallicFactor" : 0,
                "roughnessFactor" : 0
            }
        },
        {
            "doubleSided" : true,
            "name" : "Teeth",
            "pbrMetallicRoughness" : {
                "metallicFactor" : 0,
                "roughnessFactor" : 0
            }
        },
        {
            "doubleSided" : true,
            "name" : "Spit",
            "pbrMetallicRoughness" : {
                "baseColorFactor" : [
                    0.0021619999315589666,
                    0.1190669983625412,
                    0.8962690234184265,
                    1
                ],
                "metallicFactor" : 0,
                "roughnessFactor" : 0
            }
        }
    ],
    "meshes" : [
        {
            "name" : "Tongue.001_CubeOpenMesh1.003",
            "primitives" : [
                {
                    "attributes" : {
                        "POSITION" : 0,
                        "NORMAL" : 1
                    },
                    "indices" : 2,
                    "material" : 0
                }
            ]
        },
        {
            "name" : "MushroomEyeRight.001_Sphere.005",
            "primitives" : [
                {
                    "attributes" : {
                        "POSITION" : 3,
                        "NORMAL" : 4
                    },
                    "indices" : 5,
                    "material" : 1
                },
                {
                    "attributes" : {
                        "POSITION" : 6,
                        "NORMAL" : 7
                    },
                    "indices" : 8,
                    "material" : 2
                }
            ]
        },
        {
            "name" : "MushroomEyeLeft.001_Sphere.004",
            "primitives" : [
                {
                    "attributes" : {
                        "POSITION" : 9,
                        "NORMAL" : 10
                    },
                    "indices" : 11,
                    "material" : 1
                },
                {
                    "attributes" : {
                        "POSITION" : 12,
                        "NORMAL" : 13
                    },
                    "indices" : 14,
                    "material" : 2
                }
            ]
        },
        {
            "name" : "MushroomCap.001_Sphere.003",
            "primitives" : [
                {
                    "attributes" : {
                        "POSITION" : 15,
                        "NORMAL" : 16
                    },
                    "indices" : 17,
                    "material" : 3
                }
            ]
        },
        {
            "name" : "Teeth.001_Plane.001",
            "primitives" : [
                {
                    "attributes" : {
                        "POSITION" : 18,
                        "NORMAL" : 19
                    },
                    "indices" : 20,
                    "material" : 4
                }
            ]
        },
        {
            "name" : "MushroomBase.001_CubeOpenMesh.002",
            "primitives" : [
                {
                    "attributes" : {
                        "POSITION" : 21,
                        "NORMAL" : 22
                    },
                    "indices" : 23,
                    "material" : 3
                }
            ]
        },
        {
            "name" : "TongueSpit.001_CubeOpenMesh1.002",
            "primitives" : [
                {
                    "attributes" : {
                        "POSITION" : 24,
                        "NORMAL" : 25
                    },
                    "indices" : 26,
                    "material" : 5
                }
            ]
        }
    ],
    "accessors" : [
        {
            "bufferView" : 0,
            "componentType" : 5126,
            "count" : 729,
            "max" : [
                11.621063232421875,
                10.904950141906738,
                8.001992225646973
            ],
            "min" : [
                1.651007056236267,
                0.47880199551582336,
                2.051064968109131
            ],
            "type" : "VEC3"
        },
        {
            "bufferView" : 1,
            "componentType" : 5126,
            "count" : 729,
            "type" : "VEC3"
        },
        {
            "bufferView" : 2,
            "componentType" : 5123,
            "count" : 4320,
            "type" : "SCALAR"
        },
        {
            "bufferView" : 3,
            "componentType" : 5126,
            "count" : 7938,
            "max" : [
                -3.7923099994659424,
                8.354534149169922,
                2.1860339641571045
            ],
            "min" : [
                -12.626049995422363,
                -1.4613080024719238,
                -8.556604385375977
            ],
            "type" : "VEC3"
        },
        {
            "bufferView" : 4,
            "componentType" : 5126,
            "count" : 7938,
            "type" : "VEC3"
        },
        {
            "bufferView" : 5,
            "componentType" : 5123,
            "count" : 47616,
            "type" : "SCALAR"
        },
        {
            "bufferView" : 6,
            "componentType" : 5126,
            "count" : 2306,
            "max" : [
                -5.652194976806641,
                8.673029899597168,
                -1.8270070552825928
            ],
            "min" : [
                -9.939672470092773,
                7.1290459632873535,
                -6.597039222717285
            ],
            "type" : "VEC3"
        },
        {
            "bufferView" : 7,
            "componentType" : 5126,
            "count" : 2306,
            "type" : "VEC3"
        },
        {
            "bufferView" : 8,
            "componentType" : 5123,
            "count" : 13824,
            "type" : "SCALAR"
        },
        {
            "bufferView" : 9,
            "componentType" : 5126,
            "count" : 7938,
            "max" : [
                12.236587524414062,
                8.78817367553711,
                2.090221881866455
            ],
            "min" : [
                3.3799118995666504,
                -0.917572021484375,
                -8.444924354553223
            ],
            "type" : "VEC3"
        },
        {
            "bufferView" : 10,
            "componentType" : 5126,
            "count" : 7938,
            "type" : "VEC3"
        },
        {
            "bufferView" : 11,
            "componentType" : 5123,
            "count" : 47616,
            "type" : "SCALAR"
        },
        {
            "bufferView" : 12,
            "componentType" : 5126,
            "count" : 2306,
            "max" : [
                9.398902893066406,
                9.098089218139648,
                -1.2329310178756714
            ],
            "min" : [
                5.389969825744629,
                7.586327075958252,
                -5.997787952423096
            ],
            "type" : "VEC3"
        },
        {
            "bufferView" : 13,
            "componentType" : 5126,
            "count" : 2306,
            "type" : "VEC3"
        },
        {
            "bufferView" : 14,
            "componentType" : 5123,
            "count" : 13824,
            "type" : "SCALAR"
        },
        {
            "bufferView" : 15,
            "componentType" : 5126,
            "count" : 8450,
            "max" : [
                18.55746841430664,
                17.684467315673828,
                -2.54123592376709
            ],
            "min" : [
                -18.99809455871582,
                -18.627437591552734,
                -27.37070083618164
            ],
            "type" : "VEC3"
        },
        {
            "bufferView" : 16,
            "componentType" : 5126,
            "count" : 8450,
            "type" : "VEC3"
        },
        {
            "bufferView" : 17,
            "componentType" : 5123,
            "count" : 50688,
            "type" : "SCALAR"
        },
        {
            "bufferView" : 18,
            "componentType" : 5126,
            "count" : 356,
            "max" : [
                4.173721790313721,
                8.70003890991211,
                10.122512817382812
            ],
            "min" : [
                -3.8675649166107178,
                5.738707065582275,
                1.2668579816818237
            ],
            "type" : "VEC3"
        },
        {
            "bufferView" : 19,
            "componentType" : 5126,
            "count" : 356,
            "type" : "VEC3"
        },
        {
            "bufferView" : 20,
            "componentType" : 5123,
            "count" : 1920,
            "type" : "SCALAR"
        },
        {
            "bufferView" : 21,
            "componentType" : 5126,
            "count" : 4066,
            "max" : [
                7.755998134613037,
                9.681254386901855,
                15.13642406463623
            ],
            "min" : [
                -7.755998134613037,
                -8.042911529541016,
                -15.635202407836914
            ],
            "type" : "VEC3"
        },
        {
            "bufferView" : 22,
            "componentType" : 5126,
            "count" : 4066,
            "type" : "VEC3"
        },
        {
            "bufferView" : 23,
            "componentType" : 5123,
            "count" : 24384,
            "type" : "SCALAR"
        },
        {
            "bufferView" : 24,
            "componentType" : 5126,
            "count" : 648,
            "max" : [
                12.216530799865723,
                6.262656211853027,
                6.615211009979248
            ],
            "min" : [
                6.852778911590576,
                -8.057252883911133,
                0.5089809894561768
            ],
            "type" : "VEC3"
        },
        {
            "bufferView" : 25,
            "componentType" : 5126,
            "count" : 648,
            "type" : "VEC3"
        },
        {
            "bufferView" : 26,
            "componentType" : 5123,
            "count" : 3840,
            "type" : "SCALAR"
        }
    ],
    "bufferViews" : [
        {
            "buffer" : 0,
            "byteLength" : 8748,
            "byteOffset" : 0
        },
        {
            "buffer" : 0,
            "byteLength" : 8748,
            "byteOffset" : 8748
        },
        {
            "buffer" : 0,
            "byteLength" : 8640,
            "byteOffset" : 17496
        },
        {
            "buffer" : 0,
            "byteLength" : 95256,
            "byteOffset" : 26136
        },
        {
            "buffer" : 0,
            "byteLength" : 95256,
            "byteOffset" : 121392
        },
        {
            "buffer" : 0,
            "byteLength" : 95232,
            "byteOffset" : 216648
        },
        {
            "buffer" : 0,
            "byteLength" : 27672,
            "byteOffset" : 311880
        },
        {
            "buffer" : 0,
            "byteLength" : 27672,
            "byteOffset" : 339552
        },
        {
            "buffer" : 0,
            "byteLength" : 27648,
            "byteOffset" : 367224
        },
        {
            "buffer" : 0,
            "byteLength" : 95256,
            "byteOffset" : 394872
        },
        {
            "buffer" : 0,
            "byteLength" : 95256,
            "byteOffset" : 490128
        },
        {
            "buffer" : 0,
            "byteLength" : 95232,
            "byteOffset" : 585384
        },
        {
            "buffer" : 0,
            "byteLength" : 27672,
            "byteOffset" : 680616
        },
        {
            "buffer" : 0,
            "byteLength" : 27672,
            "byteOffset" : 708288
        },
        {
            "buffer" : 0,
            "byteLength" : 27648,
            "byteOffset" : 735960
        },
        {
            "buffer" : 0,
            "byteLength" : 101400,
            "byteOffset" : 763608
        },
        {
            "buffer" : 0,
            "byteLength" : 101400,
            "byteOffset" : 865008
        },
        {
            "buffer" : 0,
            "byteLength" : 101376,
            "byteOffset" : 966408
        },
        {
            "buffer" : 0,
            "byteLength" : 4272,
            "byteOffset" : 1067784
        },
        {
            "buffer" : 0,
            "byteLength" : 4272,
            "byteOffset" : 1072056
        },
        {
            "buffer" : 0,
            "byteLength" : 3840,
            "byteOffset" : 1076328
        },
        {
            "buffer" : 0,
            "byteLength" : 48792,
            "byteOffset" : 1080168
        },
        {
            "buffer" : 0,
            "byteLength" : 48792,
            "byteOffset" : 1128960
        },
        {
            "buffer" : 0,
            "byteLength" : 48768,
            "byteOffset" : 1177752
        },
        {
            "buffer" : 0,
            "byteLength" : 7776,
            "byteOffset" : 1226520
        },
        {
            "buffer" : 0,
            "byteLength" : 7776,
            "byteOffset" : 1234296
        },
        {
            "buffer" : 0,
            "byteLength" : 7680,
            "byteOffset" : 1242072
        }
    ],
    "buffers" : [
        {
            "byteLength" : 1249752,
            "uri" : "data:application/octet-stream;base64,"
        }
    ]
}
