{
    "asset" : {
        "generator" : "Khronos glTF Blender I/O v1.6.16",
        "version" : "2.0"
    },
    "scene" : 0,
    "scenes" : [
        {
            "name" : "Scene",
            "nodes" : [
                0,
                1,
                2,
                3
            ]
        }
    ],
    "nodes" : [
        {
            "mesh" : 0,
            "name" : "SlugPupils_Cube.001",
            "rotation" : [
                0.7071068286895752,
                0,
                0,
                0.7071067094802856
            ]
        },
        {
            "mesh" : 1,
            "name" : "SlugEyes_Sphere",
            "rotation" : [
                0.7071068286895752,
                0,
                0,
                0.7071067094802856
            ]
        },
        {
            "mesh" : 2,
            "name" : "SlugAntena_Cube",
            "rotation" : [
                0.7071068286895752,
                0,
                0,
                0.7071067094802856
            ]
        },
        {
            "mesh" : 3,
            "name" : "SlugBody_CubeOpenMesh",
            "rotation" : [
                0.7071068286895752,
                0,
                0,
                0.7071067094802856
            ],
            "scale" : [
                1,
                1.558253526687622,
                0.9308605194091797
            ]
        }
    ],
    "materials" : [
        {
            "doubleSided" : true,
            "name" : "SlugPupils",
            "pbrMetallicRoughness" : {
                "baseColorFactor" : [
                    0.800000011920929,
                    0.09140300005674362,
                    0.09357000142335892,
                    1
                ],
                "metallicFactor" : 0,
                "roughnessFactor" : 0
            }
        },
        {
            "doubleSided" : true,
            "name" : "SlugEyes",
            "pbrMetallicRoughness" : {
                "baseColorFactor" : [
                    0.800000011920929,
                    0.800000011920929,
                    0.800000011920929,
                    1
                ],
                "metallicFactor" : 0,
                "roughnessFactor" : 0
            }
        },
        {
            "doubleSided" : true,
            "name" : "SlugAntena",
            "pbrMetallicRoughness" : {
                "baseColorFactor" : [
                    0.08864600211381912,
                    1,
                    0.06221099942922592,
                    1
                ],
                "metallicFactor" : 0,
                "roughnessFactor" : 0
            }
        },
        {
            "doubleSided" : true,
            "name" : "SlugAntenaBall",
            "pbrMetallicRoughness" : {
                "baseColorFactor" : [
                    1,
                    0.09773000329732895,
                    0.09388100355863571,
                    1
                ],
                "metallicFactor" : 0,
                "roughnessFactor" : 0
            }
        },
        {
            "doubleSided" : true,
            "name" : "SlugBody",
            "pbrMetallicRoughness" : {
                "baseColorFactor" : [
                    0.800000011920929,
                    0.6602240204811096,
                    0.12037999927997589,
                    1
                ],
                "metallicFactor" : 0,
                "roughnessFactor" : 0
            }
        }
    ],
    "meshes" : [
        {
            "name" : "SlugPupils_Cube.001",
            "primitives" : [
                {
                    "attributes" : {
                        "POSITION" : 0,
                        "NORMAL" : 1,
                        "TEXCOORD_0" : 2
                    },
                    "indices" : 3,
                    "material" : 0
                }
            ]
        },
        {
            "name" : "SlugEyes_Sphere",
            "primitives" : [
                {
                    "attributes" : {
                        "POSITION" : 4,
                        "NORMAL" : 5,
                        "TEXCOORD_0" : 6
                    },
                    "indices" : 7,
                    "material" : 1
                }
            ]
        },
        {
            "name" : "SlugAntena_Cube",
            "primitives" : [
                {
                    "attributes" : {
                        "POSITION" : 8,
                        "NORMAL" : 9,
                        "TEXCOORD_0" : 10
                    },
                    "indices" : 11,
                    "material" : 2
                },
                {
                    "attributes" : {
                        "POSITION" : 12,
                        "NORMAL" : 13,
                        "TEXCOORD_0" : 14
                    },
                    "indices" : 15,
                    "material" : 3
                }
            ]
        },
        {
            "name" : "SlugBody_CubeOpenMesh",
            "primitives" : [
                {
                    "attributes" : {
                        "POSITION" : 16,
                        "NORMAL" : 17,
                        "TEXCOORD_0" : 18
                    },
                    "indices" : 19,
                    "material" : 4
                }
            ]
        }
    ],
    "accessors" : [
        {
            "bufferView" : 0,
            "componentType" : 5126,
            "count" : 986,
            "max" : [
                0.9265549182891846,
                0.25525033473968506,
                -3.402716875076294
            ],
            "min" : [
                0.6170039176940918,
                -0.39609766006469727,
                -3.712266683578491
            ],
            "type" : "VEC3"
        },
        {
            "bufferView" : 1,
            "componentType" : 5126,
            "count" : 986,
            "type" : "VEC3"
        },
        {
            "bufferView" : 2,
            "componentType" : 5126,
            "count" : 986,
            "type" : "VEC2"
        },
        {
            "bufferView" : 3,
            "componentType" : 5123,
            "count" : 4608,
            "type" : "SCALAR"
        },
        {
            "bufferView" : 4,
            "componentType" : 5126,
            "count" : 1231,
            "max" : [
                0.919846773147583,
                0.9287303686141968,
                -3.2556238174438477
            ],
            "min" : [
                0.04238390922546387,
                -1.0695775747299194,
                -4.3608269691467285
            ],
            "type" : "VEC3"
        },
        {
            "bufferView" : 5,
            "componentType" : 5126,
            "count" : 1231,
            "type" : "VEC3"
        },
        {
            "bufferView" : 6,
            "componentType" : 5126,
            "count" : 1231,
            "type" : "VEC2"
        },
        {
            "bufferView" : 7,
            "componentType" : 5123,
            "count" : 5760,
            "type" : "SCALAR"
        },
        {
            "bufferView" : 8,
            "componentType" : 5126,
            "count" : 2056,
            "max" : [
                -0.19128310680389404,
                1.6292072534561157,
                -4.324342727661133
            ],
            "min" : [
                -2.5288190841674805,
                -1.7700536251068115,
                -6.072670936584473
            ],
            "type" : "VEC3"
        },
        {
            "bufferView" : 9,
            "componentType" : 5126,
            "count" : 2056,
            "type" : "VEC3"
        },
        {
            "bufferView" : 10,
            "componentType" : 5126,
            "count" : 2056,
            "type" : "VEC2"
        },
        {
            "bufferView" : 11,
            "componentType" : 5123,
            "count" : 9984,
            "type" : "SCALAR"
        },
        {
            "bufferView" : 12,
            "componentType" : 5126,
            "count" : 988,
            "max" : [
                -2.2532851696014404,
                1.8286012411117554,
                -5.861870765686035
            ],
            "min" : [
                -2.87203311920166,
                -1.9694476127624512,
                -6.480618000030518
            ],
            "type" : "VEC3"
        },
        {
            "bufferView" : 13,
            "componentType" : 5126,
            "count" : 988,
            "type" : "VEC3"
        },
        {
            "bufferView" : 14,
            "componentType" : 5126,
            "count" : 988,
            "type" : "VEC2"
        },
        {
            "bufferView" : 15,
            "componentType" : 5123,
            "count" : 4608,
            "type" : "SCALAR"
        },
        {
            "bufferView" : 16,
            "componentType" : 5126,
            "count" : 6850,
            "max" : [
                1.920391321182251,
                0.9137913584709167,
                0.22196495532989502
            ],
            "min" : [
                -2.1688058376312256,
                -1.0546376705169678,
                -4.570810794830322
            ],
            "type" : "VEC3"
        },
        {
            "bufferView" : 17,
            "componentType" : 5126,
            "count" : 6850,
            "type" : "VEC3"
        },
        {
            "bufferView" : 18,
            "componentType" : 5126,
            "count" : 6850,
            "type" : "VEC2"
        },
        {
            "bufferView" : 19,
            "componentType" : 5123,
            "count" : 36672,
            "type" : "SCALAR"
        }
    ],
    "bufferViews" : [
        {
            "buffer" : 0,
            "byteLength" : 11832,
            "byteOffset" : 0
        },
        {
            "buffer" : 0,
            "byteLength" : 11832,
            "byteOffset" : 11832
        },
        {
            "buffer" : 0,
            "byteLength" : 7888,
            "byteOffset" : 23664
        },
        {
            "buffer" : 0,
            "byteLength" : 9216,
            "byteOffset" : 31552
        },
        {
            "buffer" : 0,
            "byteLength" : 14772,
            "byteOffset" : 40768
        },
        {
            "buffer" : 0,
            "byteLength" : 14772,
            "byteOffset" : 55540
        },
        {
            "buffer" : 0,
            "byteLength" : 9848,
            "byteOffset" : 70312
        },
        {
            "buffer" : 0,
            "byteLength" : 11520,
            "byteOffset" : 80160
        },
        {
            "buffer" : 0,
            "byteLength" : 24672,
            "byteOffset" : 91680
        },
        {
            "buffer" : 0,
            "byteLength" : 24672,
            "byteOffset" : 116352
        },
        {
            "buffer" : 0,
            "byteLength" : 16448,
            "byteOffset" : 141024
        },
        {
            "buffer" : 0,
            "byteLength" : 19968,
            "byteOffset" : 157472
        },
        {
            "buffer" : 0,
            "byteLength" : 11856,
            "byteOffset" : 177440
        },
        {
            "buffer" : 0,
            "byteLength" : 11856,
            "byteOffset" : 189296
        },
        {
            "buffer" : 0,
            "byteLength" : 7904,
            "byteOffset" : 201152
        },
        {
            "buffer" : 0,
            "byteLength" : 9216,
            "byteOffset" : 209056
        },
        {
            "buffer" : 0,
            "byteLength" : 82200,
            "byteOffset" : 218272
        },
        {
            "buffer" : 0,
            "byteLength" : 82200,
            "byteOffset" : 300472
        },
        {
            "buffer" : 0,
            "byteLength" : 54800,
            "byteOffset" : 382672
        },
        {
            "buffer" : 0,
            "byteLength" : 73344,
            "byteOffset" : 437472
        }
    ],
    "buffers" : [
        {
            "byteLength" : 510816,
            "uri" : "data:application/octet-stream;base64,"
        }
    ]
}
